<?xml version="1.0" encoding="UTF-8"?>
<svg id="Layer_1" xmlns="http://www.w3.org/2000/svg" version="1.1" viewBox="0 0 375 375">
  <!-- Generator: Adobe Illustrator 30.2.1, SVG Export Plug-In . SVG Version: 2.1.1 Build 1)  -->
  <defs>
    <style>
      .st0 {
        fill: #fff;
      }
    </style>
  </defs>
  <path class="st0" d="M328.14,187.5c0,77.67-62.97,140.64-140.64,140.64S46.86,265.17,46.86,187.5,109.83,46.86,187.5,46.86s140.64,62.97,140.64,140.64ZM312.49,187.55c0-69.03-55.96-124.99-124.99-124.99s-124.99,55.96-124.99,124.99,55.96,124.99,124.99,124.99,124.99-55.96,124.99-124.99Z"/>
  <path class="st0" d="M176.02,243.21c7.69-.1,13.96-.06,21.09-.52,22.29-1.44,39.9-18.88,40.84-41.42.5-12.02.41-23.61.04-35.67-.42-13.59-6.76-26.17-17.46-34.21-9.33-7.01-19.96-9.04-31.53-9.05l-73.61-.12c12.16-15.06,27.89-24,45.31-28.58,49.53-13.01,99.6,14.61,115.5,63.15,5.61,17.13,6.85,34.92,2.3,52.84-11.56,45.53-53.56,77.21-101.35,73.09-2.54-.22-4.11-2.01-4.11-4.5l-.04-32.35c0-1.07,1.81-2.62,3.02-2.64Z"/>
  <path class="st0" d="M188.43,203.76l-58.3.48-.23,60.9c-9.06-6.26-15.46-13.41-21.69-21.45-17.44-22.49-23.57-50.68-17.89-78.54.61-2.99,1.87-4.56,5.23-4.55l90.39.16c7.02.01,12.19,4.6,12.49,11.41s.33,13.92-.04,21.14c-.26,4.91-4.21,10.4-9.96,10.44Z"/>
</svg>
