<?xml version="1.0" encoding="UTF-8"?>
<svg id="Layer_1" xmlns="http://www.w3.org/2000/svg" version="1.1" viewBox="0 0 384 187.5">
  <!-- Generator: Adobe Illustrator 30.2.1, SVG Export Plug-In . SVG Version: 2.1.1 Build 1)  -->
  <defs>
    <style>
      .st0 {
        fill: #fefefe;
      }
    </style>
  </defs>
  <path class="st0" d="M140.09,114.54c-3.2.6-5.52.5-8.28.05-11.08-1.78-18.57-10.85-18.01-21.6.56-10.77,9.28-18.78,20.41-19.28,11.44-.51,21.31,6.15,23.11,17.28s-5.5,21.37-17.23,23.55ZM146.91,89.36c-1.99-5.56-7.02-7.62-12.84-7.31-6.87.37-11.02,6.69-10.44,13.7.63,7.7,7.98,12.38,14.9,10.57,7.46-1.95,11.15-9.21,8.37-16.95Z"/>
  <path class="st0" d="M163.5,124.7v-40.99c4.56.36,9.16-1.59,9.37,2.15,4.59-3.14,9.2-3.83,14.44-1.87,4.05,1.51,7.91,5.21,9.16,10.26,1.57,6.32-.17,13.16-5.07,16.97-5.22,4.06-13.14,4.68-18.68.2l-.24,13.3-8.98-.02ZM187.57,99.54c.63-5.12-3.81-9.79-8.74-8.91-4,.71-6.18,4.27-6.36,7.65s1.59,7.56,5.25,8.38c2.67.59,5.13.3,7.12-1.24,1.42-1.1,2.37-2.89,2.73-5.88Z"/>
  <path class="st0" d="M254.51,102.95l-12.23.17-.05,11.15-8.99-.03v-40.26c10.5.46,25.47-2.23,32.12,7,2.87,3.99,3.22,9.31.9,14.03-1.96,4-6,7.87-11.76,7.95ZM258.07,88.54c-.52-7.87-10.1-6.3-15.81-6.37v13.43c5.69.25,16.33.77,15.81-7.07Z"/>
  <path class="st0" d="M337.06,91.04c3.07,5.24,2.6,11.28-.12,16.01s-7.74,7.25-13.69,7.46c-7.53.26-14.12-3.23-16.93-10.04-2.74-6.63-.38-14.89,6.12-18.8,8.3-5,19.58-3.25,24.62,5.37ZM329.63,100.72c.94-4.6-1.59-9.23-5.69-9.95s-8.71,1.57-9.06,6.17,1.19,8.99,5.81,9.83c3.86.7,7.98-1.31,8.95-6.05Z"/>
  <path class="st0" d="M224.15,111.2c-5.22,4.97-20.55,3.97-24.83-.38,1.2-2.24,2.02-4.3,3.3-6.19,3.24,2.22,15.33,5.16,15.69.33.24-3.26-8.73-1.62-14.8-5.16-3.35-1.95-3.87-5.74-3.08-9.5,1.72-8.28,18.53-9.23,26.11-4.42-1.36,2.27-1.78,4.43-3.68,6.3-3.4-2.1-13.33-3.01-13.7.04-.18,1.47.35,2.08,1.87,2.4l9.87,2.02c3.17.65,5.61,3.17,6.18,5.54.94,3.87-.33,6.53-2.94,9.02Z"/>
  <path class="st0" d="M361.86,106.21c1.33,2.07,2.16,4.21,2.63,6.34-4.6,4.06-18.41,1.82-18.54-5.84l-.27-15.48-4.4-.15v-6.6s4.44-.13,4.44-.13l.07-7.39h8.92s.08,7.42.08,7.42l7.42.07v6.65s-7.55.1-7.55.1c.56,4.65-.64,9.36.48,13.89.62,2.51,4.69,2.05,6.72,1.12Z"/>
  <path class="st0" d="M300.08,113.74c-2.85,1.17-6.13.53-9.76.25v-41.9c3.37-.63,6.24-.63,9.58,0l.18,41.66Z"/>
  <path class="st0" d="M282.78,114.13c-3.13.36-5.88.13-9.04.11v-30.54s9.01,0,9.01,0l.03,30.43Z"/>
  <path class="st0" d="M276.29,79.45c-2.42-1.08-3.94-2.39-4.02-4.45s1.29-4.16,3.44-5.07c2.38-1,5.13-.63,7,1.33,1.43,1.5,1.58,4.17.16,6.2-1.25,1.79-4.08,3.11-6.58,1.99Z"/>
  <g>
    <path class="st0" d="M13.86,93.32c-.71-10.83,3.2-21.36,9.87-29.15,9.18-10.72,21.48-15.91,35.64-14.94,22.52,1.54,39.54,20.97,38.9,43.03-.64,22.18-18.78,40.13-40.94,40.8-22.47.68-41.95-16.41-43.47-39.75ZM26.66,113.47c10.01,12.57,25.49,17.3,40.74,12.68,13.56-4.11,23.94-16.6,25.45-31.06s-5.77-29.12-18.97-36.39c-6.48-3.57-12.44-4.59-20.04-4.29-18.69.72-33.82,15.75-34.81,34.76-.44,8.52,2.1,17.36,7.63,24.3Z"/>
    <path class="st0" d="M51.75,107.56c8.88.71,17.95-1.37,19.2-11.53.49-3.96.58-8.03,0-12.11-.81-5.61-5.03-11.26-10.94-11.31l-25.53-.22c4.4-6.02,10.9-9.31,18.5-10.01,13.17-1.21,25.52,7.03,29.55,18.82,4.57,13.33-.38,27.09-12.2,34.37-5.61,3.46-11.7,4.9-18.36,3.6l-.22-11.61Z"/>
    <path class="st0" d="M57.59,95.84c-5.78,1.47-11.94-.09-17.77.63l-.43,18.05c-9.75-6.78-15.28-19.28-12.02-31.49l28.1-.07c3.3,0,4.78,2.81,4.59,6.04-.11,1.76.31,6.13-2.47,6.84Z"/>
  </g>
</svg>
